# Blender v2.77 (sub 0) OBJ File: 'PA3.blend'
# www.blender.org
mtllib box.mtl
o Cube
v -1.003124 -0.080284 -2.028892
v -1.025171 -0.080284 2.020350
v 1.010473 -0.080284 2.027700
v 1.010473 -0.080284 -2.036243
v 1.010474 0.360268 2.026775
v 0.929883 0.299494 -1.976381
v -1.028401 0.377669 2.020350
v -0.975290 0.306491 -1.993321
vn 0.0000 1.0000 0.0000
vn 0.9772 0.2110 -0.0229
vn -1.0000 0.0000 0.0000
vn 0.0036 0.0000 -1.0000
vn 0.0031 -0.0021 -1.0000
vn 0.0092 0.0909 -0.9958
vn 0.0036 -0.1550 0.9879
vn -0.9972 0.0731 -0.0145
vn 1.0000 0.0071 0.0054
usemtl Material
s off
f 2//1 3//1 1//1
f 3//1 4//1 1//1
f 4//2 6//2 5//2
f 4//3 3//3 5//3
f 3//4 2//4 7//4
f 5//5 3//5 7//5
f 1//6 8//6 6//6
f 1//7 4//7 6//7
f 8//8 1//8 7//8
f 1//9 7//9 2//9
